HIERARCHY
ROOT Hips
{
	OFFSET 0.000000 0.000000 0.000000
	CHANNELS 6 Xposition Yposition Zposition Zrotation Yrotation Xrotation 
	JOINT LHipJoint
	{
		OFFSET 0.000000 0.000000 0.000000
		CHANNELS 3 Zrotation Yrotation Xrotation
		JOINT LeftUpLeg
		{
			OFFSET 1.363060 -1.794630 0.839290
			CHANNELS 3 Zrotation Yrotation Xrotation
			JOINT LeftLeg
			{
				OFFSET 2.448110 -6.726130 0.000000
				CHANNELS 3 Zrotation Yrotation Xrotation
				JOINT LeftFoot
				{
					OFFSET 2.562200 -7.039590 0.000000
					CHANNELS 3 Zrotation Yrotation Xrotation
					JOINT LeftToeBase
					{
						OFFSET 0.157640 -0.433110 2.322550
						CHANNELS 3 Zrotation Yrotation Xrotation
						End Site
						{
							OFFSET 0.000000 0.000000 0.000000
						}
					}
				}
			}
		}
	}
	JOINT RHipJoint
	{
		OFFSET 0.000000 0.000000 0.000000
		CHANNELS 3 Zrotation Yrotation Xrotation
		JOINT RightUpLeg
		{
			OFFSET -1.305520 -1.794630 0.839290
			CHANNELS 3 Zrotation Yrotation Xrotation
			JOINT RightLeg
			{
				OFFSET -2.542530 -6.985550 0.000000
				CHANNELS 3 Zrotation Yrotation Xrotation
				JOINT RightFoot
				{
					OFFSET -2.568260 -7.056230 0.000000
					CHANNELS 3 Zrotation Yrotation Xrotation
					JOINT RightToeBase
					{
						OFFSET -0.164730 -0.452590 2.363150
						CHANNELS 3 Zrotation Yrotation Xrotation
						End Site
						{
							OFFSET 0.000000 0.000000 0.000000
						}
					}
				}
			}
		}
	}
	JOINT LowerBack
	{
		OFFSET 0.000000 0.000000 0.000000
		CHANNELS 3 Zrotation Yrotation Xrotation
		JOINT Spine
		{
			OFFSET 0.028270 2.035590 -0.193380
			CHANNELS 3 Zrotation Yrotation Xrotation
			JOINT Spine1
			{
				OFFSET 0.056720 2.048850 -0.042750
				CHANNELS 3 Zrotation Yrotation Xrotation
				JOINT Neck
				{
					OFFSET 0.000000 0.000000 0.000000
					CHANNELS 3 Zrotation Yrotation Xrotation
					JOINT Neck1
					{
						OFFSET -0.054170 1.746240 0.172020
						CHANNELS 3 Zrotation Yrotation Xrotation
						JOINT Head
						{
							OFFSET 0.104070 1.761360 -0.123970
							CHANNELS 3 Zrotation Yrotation Xrotation
							End Site
							{
								OFFSET 0.000000 0.000000 0.000000
							}
						}
					}
				}
				JOINT LeftShoulder
				{
					OFFSET 0.000000 0.000000 0.000000
					CHANNELS 3 Zrotation Yrotation Xrotation
					JOINT LeftArm
					{
						OFFSET 3.362410 1.200890 -0.311210
						CHANNELS 3 Zrotation Yrotation Xrotation
						JOINT LeftForeArm
						{
							OFFSET 4.983000 -0.000000 -0.000000
							CHANNELS 3 Zrotation Yrotation Xrotation
							JOINT LeftHand
							{
								OFFSET 3.483560 -0.000000 -0.000000
								CHANNELS 3 Zrotation Yrotation Xrotation
								JOINT LeftFingerBase
								{
									OFFSET 0.000000 0.000000 0.000000
									CHANNELS 3 Zrotation Yrotation Xrotation
									JOINT LeftHandIndex1
									{
										OFFSET 0.715260 -0.000000 -0.000000
										CHANNELS 3 Zrotation Yrotation Xrotation
										End Site
										{
											OFFSET 0.000000 0.000000 0.000000
										}
									}
								}
								JOINT LThumb
								{
									OFFSET 0.000000 0.000000 0.000000
									CHANNELS 3 Zrotation Yrotation Xrotation
									End Site
									{
										OFFSET 0.000000 0.000000 0.000000
									}
								}
							}
						}
					}
				}
				JOINT RightShoulder
				{
					OFFSET 0.000000 0.000000 0.000000
					CHANNELS 3 Zrotation Yrotation Xrotation
					JOINT RightArm
					{
						OFFSET -3.136600 1.374050 -0.404650
						CHANNELS 3 Zrotation Yrotation Xrotation
						JOINT RightForeArm
						{
							OFFSET -5.241900 -0.000000 -0.000000
							CHANNELS 3 Zrotation Yrotation Xrotation
							JOINT RightHand
							{
								OFFSET -3.444170 -0.000000 -0.000000
								CHANNELS 3 Zrotation Yrotation Xrotation
								JOINT RightFingerBase
								{
									OFFSET 0.000000 0.000000 0.000000
									CHANNELS 3 Zrotation Yrotation Xrotation
									JOINT RightHandIndex1
									{
										OFFSET -0.622530 -0.000000 -0.000000
										CHANNELS 3 Zrotation Yrotation Xrotation
										End Site
										{
											OFFSET 0.000000 0.000000 0.000000
										}
									}
								}
								JOINT RThumb
								{
									OFFSET 0.000000 0.000000 0.000000
									CHANNELS 3 Zrotation Yrotation Xrotation
									End Site
									{
										OFFSET 0.000000 0.000000 0.000000
									}
								}
							}
						}
					}
				}
			}
		}
	}
}
MOTION
Frames: 7
Frame Time: 0.008333
0.242553 17.828380 -29.090004 -3.944882 39.278723 0.536093 -5.745020 -1.997335 0.159550 -5.193194 -12.510573 -10.470338 0.527886 9.259796 25.170699 1.310631 -2.405681 4.091036 0.204900 -2.914800 -8.041700 4.433101 1.825783 0.498156 19.820666 -16.705211 -13.034427 -1.577790 -9.821169 25.985291 9.332368 -36.789879 -25.720975 -0.084500 -1.875000 5.160300 4.570739 7.012867 2.664841 1.592094 9.288656 -0.998437 -1.462877 4.751077 -1.073300 15.084871 22.044477 3.076804 -7.705869 29.447553 3.267921 -4.598100 14.532200 7.108600 3.917231 -2.103145 0.488457 -91.843558 -2.402129 37.297645 13.839146 -22.317368 -2.497459 0.168076 0.358552 -3.228130 10.258829 1.929809 0.280000 -7.125000 0.000000 0.000000 -13.134300 31.407300 4.469200 -2.908934 0.795767 0.346009 84.966720 -0.648964 25.554588 -13.600484 22.498435 -2.646957 -0.015696 -0.500362 -8.380895 -17.242317 2.296597 -0.868300 7.125000 0.000000 0.000000 7.216400 -27.017000 3.174300 
0.241756 17.828081 -29.089705 -3.923517 39.269883 0.539839 -5.743006 -1.988090 0.166485 -5.204479 -12.478689 -10.465452 0.523118 9.257276 25.153225 1.319447 -2.437037 4.113067 0.199400 -2.875700 -7.932800 4.432509 1.835812 0.493543 19.796405 -16.717380 -13.051300 -1.588038 -9.835517 26.039009 9.326286 -36.767569 -25.700936 -0.084700 -1.877700 5.167900 4.565757 6.995940 2.683564 1.574042 9.279079 -1.030157 -1.497940 4.727335 -1.087164 14.224603 21.890864 1.576781 -6.223393 29.273822 5.202467 -3.879900 14.454300 7.664000 3.939489 -1.988352 0.457068 -91.811419 -2.317830 37.332445 13.850149 -22.324046 -2.498755 0.163398 0.361336 -3.258822 10.123303 2.033028 0.293800 -7.125000 0.000000 0.000000 -13.251900 31.503100 4.479800 -2.881947 0.902371 0.347558 84.976377 -0.774352 25.522874 -13.669730 22.600518 -2.676282 -0.019298 -0.502771 -8.368808 -17.618683 2.459181 -0.940600 7.125000 0.000000 0.000000 6.923900 -26.840000 3.072800 
0.242154 17.827484 -29.091896 -3.857156 39.241309 0.573694 -5.745870 -1.979551 0.170633 -5.261218 -12.472308 -10.452758 0.516675 9.253365 25.129187 1.319741 -2.437609 4.084408 0.192400 -2.824600 -7.790900 4.431809 1.844834 0.489651 19.725815 -16.767417 -13.093345 -1.599601 -9.850012 26.094537 9.315786 -36.729312 -25.669431 -0.084400 -1.874400 5.158600 4.492300 6.980532 2.656123 1.589435 9.265708 -1.041730 -1.444796 4.703491 -1.071938 13.613603 21.730454 0.056910 -4.899319 29.090492 7.031064 -3.222800 14.375100 8.255100 3.958751 -1.875884 0.426583 -91.893342 -2.264824 37.282979 13.837134 -22.301453 -2.492779 0.161535 0.360389 -3.277345 10.044707 1.997665 0.285500 -7.125000 0.000000 0.000000 -13.307100 31.467000 4.511300 -2.855781 1.006508 0.351462 84.879723 -0.886886 25.639404 -13.738327 22.696820 -2.704120 -0.021426 -0.504950 -8.478434 -17.964615 2.581461 -1.000600 7.125000 0.000000 0.000000 6.657000 -26.704600 2.974100 
0.241955 17.827484 -29.092295 -3.803218 39.266431 0.595864 -5.750170 -1.985370 0.169966 -5.307452 -12.466009 -10.432841 0.512672 9.245233 25.109679 1.321064 -2.446634 4.098409 0.197500 -2.861400 -7.893200 4.429694 1.837442 0.490892 19.674664 -16.815547 -13.125367 -1.608304 -9.867854 26.145169 9.303395 -36.693191 -25.649248 -0.085200 -1.882700 5.181500 4.479720 6.952017 2.640569 1.593964 9.217273 -1.003085 -1.420845 4.692193 -1.041157 14.145405 21.872832 1.102487 -5.831487 29.263398 5.791149 -3.680800 14.453100 7.880600 3.946068 -1.952659 0.448502 -91.896501 -2.291624 37.129206 13.843725 -22.314757 -2.495685 0.160671 0.360274 -3.245153 10.015542 2.013169 0.287400 -7.125000 0.000000 0.000000 -13.331300 31.481500 4.515100 -2.869953 0.935559 0.351595 84.892611 -0.822511 25.620399 -13.763263 22.726781 -2.714486 -0.023140 -0.506926 -8.524091 -18.141072 2.639030 -1.030400 7.125000 0.000000 0.000000 6.521800 -26.639400 2.923000 
0.241357 17.827185 -29.093291 -3.757082 39.266921 0.616506 -5.752598 -1.983566 0.171724 -5.344136 -12.462177 -10.419705 0.507924 9.239636 25.089478 1.322156 -2.451717 4.104746 0.196400 -2.853600 -7.871400 4.428641 1.839053 0.489286 19.630126 -16.848286 -13.156411 -1.617459 -9.882787 26.194808 9.294255 -36.665977 -25.637024 -0.085600 -1.887000 5.193400 4.457023 6.938275 2.629487 1.590188 9.199077 -0.994153 -1.412167 4.679741 -1.021100 13.949596 21.856851 0.781251 -5.529994 29.240381 6.138769 -3.529200 14.441700 7.979300 3.949938 -1.929931 0.442441 -91.902129 -2.284253 37.073141 13.837193 -22.304186 -2.492947 0.159729 0.359934 -3.225316 9.976963 2.011110 0.286000 -7.125000 0.000000 0.000000 -13.360400 31.478700 4.526400 -2.864822 0.955627 0.352224 84.889002 -0.822707 25.599372 -13.797381 22.775186 -2.729471 -0.025049 -0.508556 -8.564269 -18.366124 2.721302 -1.071900 7.125000 0.000000 0.000000 6.348800 -26.547500 2.858300 
0.240361 17.826886 -29.094386 -3.725940 39.261205 0.631280 -5.754306 -1.982396 0.172669 -5.366421 -12.462565 -10.411723 0.504411 9.235029 25.073798 1.321168 -2.447614 4.112111 0.195800 -2.849500 -7.859900 4.427996 1.840453 0.487792 19.601862 -16.864432 -13.184341 -1.624643 -9.895019 26.234421 9.290501 -36.652516 -25.626819 -0.085900 -1.890800 5.203900 4.445114 6.934139 2.616433 1.586118 9.193072 -0.985284 -1.408650 4.674470 -0.999835 13.766190 21.847497 0.534098 -5.303118 29.221283 6.366876 -3.413500 14.430500 8.036600 3.952775 -1.913826 0.437895 -91.904505 -2.289216 37.031883 13.822648 -22.283039 -2.487834 0.159777 0.359247 -3.184104 9.966922 1.998040 0.283500 -7.125000 0.000000 0.000000 -13.366200 31.466000 4.532600 -2.861514 0.969072 0.352326 84.892094 -0.805283 25.553199 -13.825907 22.815838 -2.742175 -0.026612 -0.510006 -8.618866 -18.558737 2.791236 -1.107800 7.125000 0.000000 0.000000 6.201200 -26.469000 2.802600 
0.238668 17.826687 -29.095183 -3.710489 39.252604 0.638317 -5.754813 -1.981793 0.173363 -5.372966 -12.459441 -10.410941 0.502397 9.231989 25.063893 1.320978 -2.446030 4.119850 0.195400 -2.846900 -7.852700 4.427575 1.841932 0.486337 19.591238 -16.859638 -13.204474 -1.629976 -9.904895 26.266348 9.290227 -36.652487 -25.631239 -0.086100 -1.892900 5.209700 4.442331 6.932316 2.605438 1.582312 9.190444 -0.978889 -1.409705 4.671468 -0.981906 13.573682 21.845607 0.344378 -5.118432 29.211189 6.520146 -3.317600 14.422500 8.063600 3.954904 -1.902031 0.434238 -91.903635 -2.299327 36.995018 13.802783 -22.254705 -2.481054 0.160545 0.358634 -3.129424 9.980722 1.987667 0.282200 -7.125000 0.000000 0.000000 -13.354200 31.456700 4.531500 -2.859406 0.978432 0.352050 84.902203 -0.783326 25.501036 -13.853144 22.854554 -2.754108 -0.027838 -0.511309 -8.663693 -18.720015 2.846063 -1.137000 7.125000 0.000000 0.000000 6.077700 -26.406900 2.755100 
